# xmcd CD database file
#
# Track frame offsets:
#	150
#	30687
#	38868
#	55078
#	71226
#	92658
#	109302
#	126490
#	151295
#	169619
#	189489
#	207826
#	225747
#	245442
#	266450
#	278775
#
# Disc length: 3976 seconds
#
# Revision: 0
# Processed by: cddbd v1.5.1PL0 Copyright (c) Steve Scherf et al.
# Submitted via: CDex 1.51
#
DISCID=e20f8610
DTITLE=Alicesoft - アトラク＝ナクア -ATLACH=NACHA- （廉価版）
DYEAR=2000
DGENRE=Game
TTITLE0=data
TTITLE1=Information
TTITLE2=Red tint
TTITLE3=World
TTITLE4=Voluptuous lips
TTITLE5=Luring to insanity
TTITLE6=Calm time
TTITLE7=Weeping Cause
TTITLE8=Throwing into the banpuet
TTITLE9=Running Clouds
TTITLE10=Passing moment
TTITLE11=Atlach_nacha〜Going on
TTITLE12=Atlach_nacha〜Huge battle
TTITLE13=Atlach_nacha〜Adoption
TTITLE14=Running Clouds (Music Box)
TTITLE15=Memorial day
EXTD=YEAR: 2000
EXTT0=
EXTT1=
EXTT2=
EXTT3=
EXTT4=
EXTT5=
EXTT6=
EXTT7=
EXTT8=
EXTT9=
EXTT10=
EXTT11=
EXTT12=
EXTT13=
EXTT14=
EXTT15=
PLAYORDER=
